<svg id="Capa_1" enable-background="new 0 0 512 512" height="512" viewBox="0 0 512 512" width="512" xmlns="http://www.w3.org/2000/svg"><g id="XMLID_1629_"><path id="XMLID_2023_" d="m190.102 96.908 65.898-86.908 65.898 86.908 108.05-14.856-14.856 108.05 86.908 65.898-86.908 65.898 14.856 108.05-108.05-14.856-65.898 86.908-65.898-86.908-108.05 14.856 14.856-108.05-86.908-65.898 86.908-65.898-14.856-108.05z" fill="#ffe6b4"/><circle id="XMLID_1978_" cx="256" cy="256" fill="#ffcd69" r="160"/><g id="XMLID_219_"><path id="XMLID_246_" d="m508.042 248.031-82.246-62.363 14.06-102.254c.426-3.1-.624-6.221-2.836-8.434-2.214-2.213-5.335-3.265-8.434-2.836l-102.254 14.06-62.363-82.246c-1.891-2.493-4.84-3.958-7.969-3.958s-6.078 1.465-7.968 3.958l-62.363 82.246-102.255-14.059c-3.101-.426-6.221.624-8.433 2.836-2.213 2.213-3.262 5.334-2.836 8.434l14.059 102.254-82.246 62.362c-2.493 1.891-3.958 4.84-3.958 7.969s1.465 6.078 3.958 7.969l82.246 62.363-14.059 102.254c-.426 3.1.623 6.221 2.836 8.434 2.212 2.213 5.333 3.26 8.433 2.836l102.254-14.06 62.363 82.246c1.891 2.493 4.839 3.958 7.968 3.958s6.078-1.465 7.969-3.958l62.363-82.246 102.254 14.06c3.1.425 6.221-.623 8.434-2.836 2.212-2.213 3.262-5.334 2.836-8.434l-14.06-102.254 82.246-62.363c2.493-1.891 3.958-4.84 3.958-7.969s-1.464-6.078-3.957-7.969zm-173.506-142.766 83.709-11.51-11.51 83.708c-16.115-30.804-41.394-56.083-72.199-72.198zm-78.536-78.714 51.008 67.271c-16.109-5.078-33.243-7.822-51.008-7.822s-34.899 2.744-51.008 7.822zm-78.536 78.714c-30.805 16.115-56.084 41.395-72.199 72.2l-11.509-83.71zm-150.913 150.735 67.271-51.009c-5.078 16.11-7.822 33.244-7.822 51.009 0 17.534 2.618 34.641 7.718 50.93zm78.692 78.686c4.437 8.458 9.613 16.596 15.519 24.337 15.149 19.857 34.662 36.191 56.662 47.717l-83.67 11.505zm150.757 150.763-50.98-67.233c1.209.38 2.421.75 3.639 1.103 5.304 1.538 10.85-1.52 12.386-6.825 1.535-5.306-1.521-10.851-6.826-12.386-63.718-18.441-108.219-77.7-108.219-144.108 0-82.71 67.29-150 150-150s150 67.29 150 150c0 66.411-44.504 125.671-108.225 144.109-5.306 1.534-8.361 7.08-6.826 12.385 1.266 4.377 5.262 7.224 9.601 7.224.92 0 1.857-.129 2.784-.397 1.22-.353 2.434-.724 3.645-1.104zm78.577-78.708c21.998-11.525 41.509-27.858 56.659-47.714 5.906-7.742 11.083-15.879 15.52-24.338l11.489 83.557zm83.706-99.812c5.099-16.288 7.717-33.395 7.717-50.929 0-17.765-2.744-34.899-7.822-51.008l67.271 51.008z"/><path id="XMLID_261_" d="m328.864 282.691c0-5.522-4.478-10-10-10s-10 4.478-10 10c0 29.15-23.715 52.865-52.864 52.865-29.15 0-52.865-23.715-52.865-52.865 0-5.522-4.477-10-10-10s-10 4.478-10 10c0 40.178 32.687 72.865 72.865 72.865s72.864-32.687 72.864-72.865z"/><path id="XMLID_262_" d="m206.667 225.416c0 5.523 4.477 10 10 10s10-4.477 10-10c0-18.748-15.252-34-34-34s-34 15.252-34 34c0 5.523 4.477 10 10 10s10-4.477 10-10c0-7.72 6.28-14 14-14 7.719 0 14 6.28 14 14z"/><path id="XMLID_263_" d="m295.333 235.416c5.522 0 10-4.477 10-10 0-7.72 6.28-14 14-14s14 6.28 14 14c0 5.523 4.477 10 10 10 5.522 0 10-4.477 10-10 0-18.748-15.252-34-34-34s-34 15.252-34 34c0 5.523 4.477 10 10 10z"/><path id="XMLID_264_" d="m256 406c-2.63 0-5.21 1.069-7.07 2.93-1.86 1.86-2.93 4.44-2.93 7.07s1.07 5.21 2.93 7.069c1.86 1.86 4.44 2.931 7.07 2.931s5.21-1.07 7.069-2.931c1.861-1.859 2.931-4.439 2.931-7.069s-1.07-5.21-2.931-7.07c-1.859-1.861-4.439-2.93-7.069-2.93z"/></g></g></svg>